<svg width="130" height="64" viewBox="0 0 130 64" fill="none" xmlns="http://www.w3.org/2000/svg">
<g id="&#208;&#178;&#208;&#181;&#208;&#186;&#209;&#130;&#208;&#190;&#209;&#128; &#208;&#187;&#208;&#190;&#208;&#179;&#208;&#190;&#209;&#130;&#208;&#184;&#208;&#191; &#208;&#191;&#209;&#129;&#208;&#184;&#209;&#133;&#208;&#190;&#208;&#187;&#208;&#190;&#208;&#179; 2">
<g id="&#208;&#161;&#208;&#187;&#208;&#190;&#208;&#185;_x0020_1">
<g id="_1916886937488">
<path id="Vector" fill-rule="evenodd" clip-rule="evenodd" d="M73.8606 18.6311C74.2238 19.8495 73.8716 21.4917 73.1393 22.1545C72.6207 22.6237 70.6453 23.304 69.942 22.6467C69.1441 21.901 69.9031 19.8866 70.4352 19.3414C71.2227 18.5343 72.5624 18.5163 73.8606 18.6311ZM60.6638 13.7171C61.2771 13.0682 63.4169 13.6095 64.0779 14.3057C64.8041 15.0694 65.3613 16.8753 64.5844 17.6114C63.8776 18.2813 62.0928 17.8106 61.2872 17.0883C60.5711 16.1488 60.107 14.3062 60.6638 13.7171ZM75.3458 9.28809C75.7791 10.1711 76.0129 14.0013 72.7583 14.6382C70.1433 15.15 69.6371 14.6088 70.0795 12.1069C70.5576 9.40381 72.6313 8.99586 75.3458 9.28809ZM67.9091 23.6297C67.8624 21.9134 67.8646 20.0523 67.8909 18.3339C67.9045 17.448 68.4636 17.2119 68.909 16.7646C69.6011 16.0697 69.3733 15.9096 70.7262 16.0153C74.1988 16.2866 76.357 14.8801 76.7555 11.7039C76.8586 10.883 76.8256 9.98271 76.7201 9.18838C76.5867 8.18466 76.4032 8.09977 75.3853 7.99342C72.3481 7.67593 69.5277 8.34938 68.8392 11.6707C68.6816 12.4307 68.6412 13.3311 68.7151 14.1257C68.8269 15.3279 68.5641 15.2763 67.9404 15.8379C67.7825 14.7141 68.0351 12.9983 67.905 11.8051C67.7615 10.4882 66.61 10.5966 66.6031 12.0054C66.5958 13.5237 66.7191 17.6878 66.5665 18.6422C65.6484 17.681 66.3041 18.1613 66.0993 16.0527C66.0024 15.054 65.6649 14.1584 65.1501 13.5895C63.908 12.2165 61.3756 12.0067 59.9558 12.4104C59.3905 12.5712 59.3804 12.8386 59.3005 13.5079C58.4852 20.3372 64.6728 18.9599 65.0841 19.0854C65.3374 19.2741 66.315 20.2173 66.4412 20.3876C66.7862 20.853 66.6098 22.0063 66.6098 22.6808C66.6098 24.3263 66.6013 25.974 66.612 27.6196L67.8957 27.8445C67.9266 25.3312 67.5934 25.7366 69.0229 24.3791C69.5098 23.9167 69.9909 24.1699 70.8465 24.1594C72.6738 24.1367 74.3594 23.4764 74.9652 21.6268C75.3707 20.3887 75.3424 18.7877 74.9943 17.5955C73.3058 16.9259 70.5578 17.3216 69.4982 18.407C68.5164 19.4127 68.2833 20.9876 68.3885 22.4511C68.4462 23.2548 68.4952 23.3444 67.9091 23.6297Z" fill="url(#paint0_linear_194_1628)"/>
<path id="Vector_2" fill-rule="evenodd" clip-rule="evenodd" d="M56.3856 18.8122C56.477 18.2985 56.8148 18.3423 56.6505 17.6531C56.4212 16.6914 54.2871 17.2697 55.4067 15.3767C58.8335 9.58282 56.0451 10.8134 57.9755 7.15433C60.0368 3.24724 64.8402 1.46387 69.1058 2.50581C70.5585 2.8606 71.717 3.48354 72.7278 4.27382C74.8347 5.9211 73.5214 5.86604 76.3689 6.06821C75.9686 5.08688 74.3956 3.62129 73.5337 3.00114C67.4144 -1.40201 56.7464 0.978834 55.7341 9.84477C55.4046 12.7306 56.5039 10.4419 54.4402 14.2968C54.1035 14.9259 53.6942 15.6268 53.8399 16.5593C53.9786 17.4471 54.4838 17.7863 55.003 18.2261C54.9541 19.1781 55.3489 19.2965 55.5625 19.7793C55.5694 20.3482 55.263 20.4203 55.5127 21.0848C55.8558 21.9977 55.2811 23.2078 55.9649 24.0367C57.2354 25.5766 59.2904 25.1061 61.4391 24.9217C61.865 25.5995 61.9542 27.4805 62.5252 27.9466C62.8638 28.2229 63.5678 27.8625 63.5296 27.3657C63.4806 26.7315 63.1798 25.8827 63.0321 25.3099C62.8186 24.4824 62.7862 23.6784 61.9993 23.5409C60.5005 23.2791 58.3916 24.5042 57.2383 23.26C56.9855 22.2462 57.6614 21.7791 56.948 20.7082C56.4711 19.9923 56.7217 20.4163 56.7847 19.7031C56.8204 19.2988 56.5774 19.3292 56.3856 18.8122Z" fill="black"/>
<path id="Vector_3" fill-rule="evenodd" clip-rule="evenodd" d="M1.06348 30.6428H129.499V31.1755H1.06348V30.6428Z" fill="#2B2A29"/>
<path id="Vector_4" d="M4.43217 41.6161L1.52734 34.291H2.35414L4.53272 39.8552L4.83442 40.793H4.85676C4.96101 40.4179 5.06156 40.1053 5.15841 39.8552L7.33704 34.291H8.16378L5.25896 41.6161H4.43217ZM9.97927 41.6161V34.291H10.7502V41.6161H9.97927ZM13.4818 41.6161V34.291H14.2527V37.7124H15.5711L17.6938 34.291H18.5765L16.2191 37.9937V38.0145L18.7329 41.6161H17.8279L15.5711 38.3584H14.2527V41.6161H13.4818ZM22.4365 41.6161V34.937H20.5971V34.291H25.0469V34.937H23.2074V41.6161H22.4365ZM26.8887 37.8963C26.8887 36.8474 27.2705 35.9634 28.0339 35.2444C28.7974 34.5255 29.7489 34.166 30.8885 34.166C32.0355 34.166 32.9889 34.5237 33.7486 35.2392C34.5083 35.9547 34.8882 36.8404 34.8882 37.8963C34.8882 38.9799 34.5083 39.8917 33.7486 40.6315C32.9889 41.3713 32.0355 41.7412 30.8885 41.7412C29.7489 41.7412 28.7974 41.3713 28.0339 40.6315C27.2705 39.8917 26.8887 38.9799 26.8887 37.8963ZM27.6931 37.8963C27.6931 38.7924 27.9967 39.5444 28.6037 40.1522C29.2107 40.76 29.9723 41.0639 30.8885 41.0639C31.8046 41.0639 32.5662 40.7617 33.1732 40.1574C33.7803 39.553 34.0838 38.7994 34.0838 37.8963C34.0838 37.028 33.7803 36.3021 33.1732 35.7185C32.5662 35.135 31.8046 34.8433 30.8885 34.8433C29.9723 34.8433 29.2107 35.135 28.6037 35.7185C27.9967 36.3021 27.6931 37.028 27.6931 37.8963ZM37.1059 41.6161V34.291H39.4856C41.7452 34.291 42.5854 35.9342 42.3559 37.4004C42.1883 38.4703 41.3454 39.4397 40.5917 39.6389V39.6597C41.2326 40.3325 41.4657 40.959 42.1405 41.6161H41.2467L39.8543 39.8161H37.8768V41.6161H37.1059ZM37.8768 39.17H39.7426C40.5394 39.17 41.4012 38.3209 41.5788 37.3745C41.7947 36.2244 41.1084 34.937 39.4409 34.937H37.8768V39.17ZM44.8071 41.6161V34.291H45.5779V41.6161H44.8071ZM47.4957 41.6161L50.3782 34.291H51.205L54.0875 41.6161H53.2719L52.3669 39.2821H49.2051L48.3113 41.6161H47.4957ZM49.4397 38.6569H52.1323L51.1044 35.9998L50.8028 35.0412H50.7804C50.6687 35.4511 50.5683 35.7708 50.4787 35.9998L49.4397 38.6569ZM60.2887 41.6161V34.291H62.9701C64.033 34.291 64.5424 36.0442 63.4193 36.4116C64.5919 36.387 65.4874 37.6371 65.4732 38.9146C65.4583 40.2501 64.4762 41.6161 63.0594 41.6161H60.2887ZM61.0596 36.2458H62.5172C63.7982 36.2458 63.4936 34.7478 62.4949 34.7478H61.0596V36.2458ZM61.0596 40.9702H62.8842C63.9639 40.9702 64.67 40.0538 64.7507 39.0837C64.8401 38.0096 64.1914 36.8709 63.0594 36.8709H61.0596V40.9702ZM67.0776 41.6161L69.96 34.291H70.7868L73.6693 41.6161H72.8537L71.9487 39.2821H68.7869L67.8931 41.6161H67.0776ZM69.0216 38.6569H71.7141L70.6862 35.9998L70.3846 35.0412H70.3623C70.2505 35.4511 70.1501 35.7708 70.0606 35.9998L69.0216 38.6569ZM75.6088 41.6161V41.1056L79.3906 34.937V34.9162C79.3906 34.9162 79.062 34.9188 78.8013 34.9202L75.4394 34.937V34.291H80.3515V34.8016L76.5696 40.9702C76.5696 40.9998 77.0849 40.9702 77.1506 40.9702H80.385V41.6161H75.6088ZM82.5706 41.6161V34.291H83.3415V38.4499H87.8887V34.291H88.6708V41.6161H87.8887V39.096H83.3415V41.6161H82.5706ZM89.9515 41.6161L92.8339 34.291H93.6607L96.5432 41.6161H95.7276L94.8226 39.2821H91.6608L90.7671 41.6161H89.9515ZM91.8955 38.6569H94.588L93.5601 35.9998L93.2585 35.0412H93.2361C93.1244 35.4511 93.0238 35.7707 92.9345 35.9998L91.8955 38.6569ZM98.0067 41.6161V34.291H98.7553L102.766 39.5635L103.414 40.5533H103.437C103.392 40.1504 103.37 39.8205 103.37 39.5635V34.291H104.14V41.6161H103.392L99.381 36.3437L98.733 35.3539H98.7107C98.7553 35.7568 98.7777 36.0867 98.7777 36.3437V41.6161H98.0067ZM105.992 37.8963C105.992 36.8474 106.374 35.9634 107.137 35.2444C107.901 34.5255 108.852 34.166 109.992 34.166C111.139 34.166 112.092 34.5238 112.852 35.2392C113.612 35.9547 113.992 36.8404 113.992 37.8963C113.992 38.9799 113.612 39.8917 112.852 40.6315C112.092 41.3713 111.139 41.7412 109.992 41.7412C108.852 41.7412 107.901 41.3713 107.137 40.6315C106.374 39.8917 105.992 38.9799 105.992 37.8963ZM106.797 37.8963C106.797 38.7924 107.1 39.5444 107.707 40.1522C108.314 40.76 109.076 41.0639 109.992 41.0639C110.908 41.0639 111.67 40.7617 112.277 40.1574C112.884 39.553 113.187 38.7994 113.187 37.8963C113.187 37.028 112.884 36.302 112.277 35.7185C111.67 35.135 110.908 34.8433 109.992 34.8433C109.076 34.8433 108.314 35.1351 107.707 35.7185C107.1 36.302 106.797 37.028 106.797 37.8963ZM118.019 41.6161L115.114 34.291H115.941L118.12 39.8552L118.422 40.793H118.444C118.548 40.4179 118.648 40.1049 118.745 39.8552L120.924 34.291H121.751L118.846 41.6161H118.019ZM122.27 41.6161L125.153 34.291H125.98L128.862 41.6161H128.047L127.142 39.2821H123.98L123.086 41.6161H122.27ZM124.214 38.6569H126.907L125.879 35.9998L125.577 35.0412H125.555C125.443 35.4511 125.343 35.7708 125.253 35.9998L124.214 38.6569Z" fill="#2B2A29"/>
<path id="Vector_5" fill-rule="evenodd" clip-rule="evenodd" d="M1.06348 44.3953H129.499V44.9279H1.06348V44.3953Z" fill="#2B2A29"/>
<path id="Vector_6" d="M44.9758 48.9923V52.0081H44.2858V49.591H42.8225V52.0081H42.127V48.9923H44.9758ZM47.2682 52.0477C46.9603 52.0477 46.684 51.9818 46.4391 51.85C46.1943 51.7182 46.0033 51.5347 45.866 51.2993C45.7288 51.064 45.6602 50.7977 45.6602 50.5002C45.6602 50.2028 45.7288 49.9374 45.866 49.7039C46.0033 49.4705 46.1934 49.2879 46.4364 49.1561C46.6793 49.0243 46.9566 48.9584 47.2682 48.9584C47.5613 48.9584 47.8181 49.0187 48.0388 49.1391C48.2595 49.2596 48.4256 49.4328 48.5368 49.6587L48.0027 49.975C47.9173 49.8357 47.8107 49.7312 47.6827 49.6616C47.5548 49.5919 47.4147 49.5571 47.2626 49.5571C47.003 49.5571 46.7878 49.6427 46.6172 49.8141C46.4465 49.9854 46.3612 50.2141 46.3612 50.5002C46.3612 50.7864 46.4456 51.0151 46.6144 51.1864C46.7832 51.3577 46.9993 51.4434 47.2626 51.4434C47.4147 51.4434 47.5548 51.4086 47.6827 51.3389C47.8107 51.2693 47.9173 51.1648 48.0027 51.0254L48.5368 51.3417C48.4218 51.5676 48.254 51.7418 48.0333 51.8641C47.8126 51.9865 47.5576 52.0477 47.2682 52.0477ZM49.1489 48.9923H49.8444V50.9803L51.4858 48.9923H52.1201V52.0081H51.4246V50.0202L49.7887 52.0081H49.1489V48.9923ZM54.9133 52.0081L54.151 50.9633L53.3831 52.0081H52.6153L53.7727 50.4777L52.6654 48.9923H53.4388L54.1677 49.9806L54.8966 48.9923H55.6478L54.5349 50.4663L55.6978 52.0081H54.9133ZM57.4171 52.0477C57.1167 52.0477 56.8459 51.9818 56.6048 51.85C56.3637 51.7182 56.1754 51.5347 56.04 51.2993C55.9046 51.064 55.837 50.7977 55.837 50.5002C55.837 50.2028 55.9046 49.9374 56.04 49.7039C56.1754 49.4705 56.3637 49.2879 56.6048 49.1561C56.8459 49.0243 57.1167 48.9584 57.4171 48.9584C57.7213 48.9584 57.994 49.0243 58.2351 49.1561C58.4762 49.2879 58.6645 49.4705 58.7999 49.7039C58.9352 49.9374 59.0029 50.2028 59.0029 50.5002C59.0029 50.7977 58.9352 51.064 58.7999 51.2993C58.6645 51.5347 58.4762 51.7182 58.2351 51.85C57.994 51.9818 57.7213 52.0477 57.4171 52.0477ZM57.4171 51.4434C57.6731 51.4434 57.8845 51.3568 58.0515 51.1836C58.2184 51.0104 58.3019 50.7826 58.3019 50.5002C58.3019 50.2179 58.2184 49.99 58.0515 49.8169C57.8845 49.6437 57.6731 49.5571 57.4171 49.5571C57.1612 49.5571 56.9507 49.6437 56.7856 49.8169C56.6206 49.99 56.538 50.2179 56.538 50.5002C56.538 50.7826 56.6206 51.0104 56.7856 51.1836C56.9507 51.3568 57.1612 51.4434 57.4171 51.4434ZM62.347 48.9923V52.0081H61.6515V49.591H60.5386L60.5108 50.1896C60.4923 50.5887 60.4561 50.9228 60.4023 51.1921C60.3485 51.4612 60.2576 51.674 60.1297 51.8303C60.0017 51.9865 59.8264 52.0646 59.6039 52.0646C59.5 52.0646 59.372 52.0439 59.2199 52.0025L59.2533 51.4095C59.3053 51.4208 59.3498 51.4264 59.3869 51.4264C59.5278 51.4264 59.6335 51.369 59.704 51.2542C59.7745 51.1394 59.8199 51.0019 59.8403 50.8419C59.8607 50.6819 59.8783 50.4532 59.8932 50.1557L59.9433 48.9923H62.347ZM64.606 52.0477C64.3055 52.0477 64.0347 51.9818 63.7936 51.85C63.5525 51.7182 63.3643 51.5347 63.2289 51.2993C63.0935 51.064 63.0258 50.7977 63.0258 50.5002C63.0258 50.2028 63.0935 49.9374 63.2289 49.7039C63.3643 49.4705 63.5525 49.2879 63.7936 49.1561C64.0347 49.0243 64.3055 48.9584 64.606 48.9584C64.9102 48.9584 65.1828 49.0243 65.424 49.1561C65.665 49.2879 65.8533 49.4705 65.9887 49.7039C66.1241 49.9374 66.1918 50.2028 66.1918 50.5002C66.1918 50.7977 66.1241 51.064 65.9887 51.2993C65.8533 51.5347 65.665 51.7182 65.424 51.85C65.1828 51.9818 64.9102 52.0477 64.606 52.0477ZM64.606 51.4434C64.862 51.4434 65.0734 51.3568 65.2403 51.1836C65.4072 51.0104 65.4907 50.7826 65.4907 50.5002C65.4907 50.2179 65.4072 49.99 65.2403 49.8169C65.0734 49.6437 64.862 49.5571 64.606 49.5571C64.35 49.5571 64.1395 49.6437 63.9745 49.8169C63.8094 49.99 63.7269 50.2179 63.7269 50.5002C63.7269 50.7826 63.8094 51.0104 63.9745 51.1836C64.1395 51.3568 64.35 51.4434 64.606 51.4434ZM69.1574 49.591H67.5717V52.0081H66.8761V48.9923H69.1574V49.591ZM72.5238 52.0477C72.2233 52.0477 71.9525 51.9818 71.7114 51.85C71.4703 51.7182 71.282 51.5347 71.1466 51.2993C71.0113 51.064 70.9436 50.7977 70.9436 50.5002C70.9436 50.2028 71.0113 49.9374 71.1466 49.7039C71.282 49.4705 71.4703 49.2879 71.7114 49.1561C71.9525 49.0243 72.2233 48.9584 72.5238 48.9584C72.828 48.9584 73.1006 49.0243 73.3417 49.1561C73.5828 49.2879 73.771 49.4705 73.9064 49.7039C74.0419 49.9374 74.1096 50.2028 74.1096 50.5002C74.1096 50.7977 74.0419 51.064 73.9064 51.2993C73.771 51.5347 73.5828 51.7182 73.3417 51.85C73.1006 51.9818 72.828 52.0477 72.5238 52.0477ZM72.5238 51.4434C72.7797 51.4434 72.9911 51.3568 73.1581 51.1836C73.325 51.0104 73.4084 50.7826 73.4084 50.5002C73.4084 50.2179 73.325 49.99 73.1581 49.8169C72.9911 49.6437 72.7797 49.5571 72.5238 49.5571C72.2678 49.5571 72.0573 49.6437 71.8922 49.8169C71.7272 49.99 71.6446 50.2179 71.6446 50.5002C71.6446 50.7826 71.7272 51.0104 71.8922 51.1836C72.0573 51.3568 72.2678 51.4434 72.5238 51.4434ZM76.4632 48.9584C76.8378 48.9584 77.1383 49.0695 77.3645 49.2917C77.5908 49.5138 77.704 49.8432 77.704 50.28V52.0081H77.0085V50.3703C77.0085 50.1068 76.9473 49.9082 76.8248 49.7745C76.7024 49.6409 76.5281 49.574 76.3018 49.574C76.0459 49.574 75.8437 49.6522 75.6953 49.8084C75.547 49.9646 75.4728 50.1896 75.4728 50.4833V52.0081H74.7772V48.9923H75.4394V49.382C75.5543 49.2427 75.699 49.1373 75.8734 49.0658C76.0477 48.9942 76.2443 48.9584 76.4632 48.9584ZM78.5886 47.8176H79.2842V52.0081H78.5886V47.8176ZM80.1967 48.9923H80.8922V52.0081H80.1967V48.9923ZM80.5472 48.4953C80.4211 48.4953 80.3154 48.4549 80.2301 48.3739C80.1447 48.293 80.1021 48.1922 80.1021 48.0717C80.1021 47.9513 80.1447 47.8506 80.2301 47.7696C80.3154 47.6887 80.4211 47.6482 80.5472 47.6482C80.6733 47.6482 80.7791 47.6868 80.8644 47.764C80.9497 47.8411 80.9923 47.9381 80.9923 48.0548C80.9923 48.1791 80.9506 48.2836 80.8671 48.3683C80.7837 48.453 80.677 48.4953 80.5472 48.4953ZM83.4906 48.9584C83.8653 48.9584 84.1658 49.0695 84.392 49.2917C84.6183 49.5138 84.7315 49.8432 84.7315 50.28V52.0081H84.0359V50.3703C84.0359 50.1068 83.9747 49.9082 83.8523 49.7745C83.7299 49.6409 83.5555 49.574 83.3293 49.574C83.0733 49.574 82.8711 49.6522 82.7228 49.8084C82.5744 49.9646 82.5002 50.1896 82.5002 50.4833V52.0081H81.8047V48.9923H82.4668V49.382C82.5818 49.2427 82.7265 49.1373 82.9008 49.0658C83.0752 48.9942 83.2718 48.9584 83.4906 48.9584ZM88.4372 50.5172C88.4372 50.5661 88.4334 50.6358 88.426 50.7261H86.0946C86.1355 50.9483 86.2421 51.1243 86.4146 51.2542C86.5871 51.384 86.8013 51.449 87.0572 51.449C87.3837 51.449 87.6526 51.3399 87.864 51.1215L88.2368 51.5563C88.1033 51.7182 87.9345 51.8406 87.7305 51.9234C87.5265 52.0062 87.2965 52.0477 87.0406 52.0477C86.7141 52.0477 86.4266 51.9818 86.1781 51.85C85.9296 51.7182 85.7376 51.5347 85.6023 51.2993C85.4668 51.064 85.3991 50.7977 85.3991 50.5002C85.3991 50.2065 85.465 49.9421 85.5967 49.7067C85.7284 49.4714 85.9111 49.2879 86.1447 49.1561C86.3785 49.0243 86.6418 48.9584 86.9348 48.9584C87.2242 48.9584 87.4829 49.0234 87.711 49.1533C87.9392 49.2832 88.1172 49.4658 88.2452 49.7011C88.3732 49.9364 88.4372 50.2084 88.4372 50.5172ZM86.9348 49.5232C86.7123 49.5232 86.524 49.59 86.3701 49.7237C86.2161 49.8574 86.1225 50.0352 86.0891 50.2574H87.775C87.7454 50.039 87.6545 49.862 87.5024 49.7265C87.3503 49.591 87.1611 49.5232 86.9348 49.5232Z" fill="#2B2A29"/>
</g>
</g>
</g>
<defs>
<linearGradient id="paint0_linear_194_1628" x1="59.2266" y1="27.8445" x2="78.2381" y2="26.382" gradientUnits="userSpaceOnUse">
<stop stop-color="#00987F"/>
<stop offset="0.505" stop-color="#00C7A6"/>
<stop offset="1" stop-color="#00BCF5"/>
</linearGradient>
</defs>
</svg>
